<?xml version="1.0" standalone="no"?>
<!DOCTYPE svg PUBLIC "-//W3C//DTD SVG 20010904//EN"
 "http://www.w3.org/TR/2001/REC-SVG-20010904/DTD/svg10.dtd">
<svg version="1.0" xmlns="http://www.w3.org/2000/svg"
 width="556.000000pt" height="498.000000pt" viewBox="0 0 556.000000 498.000000"
 preserveAspectRatio="xMidYMid meet">
<metadata>
Created by potrace 1.15, written by Peter Selinger 2001-2017
</metadata>
<g transform="translate(0.000000,498.000000) scale(0.100000,-0.100000)"
fill="#000000" stroke="none">
<path d="M2032 4875 c-7 -31 -7 -51 -1 -53 5 -2 9 -129 9 -312 l0 -309 -107
-4 -108 -3 108 -2 107 -2 0 -495 0 -494 -92 -4 -93 -3 93 -2 92 -2 0 -425 c0
-412 -1 -426 -20 -445 -11 -11 -20 -26 -20 -33 0 -8 9 -22 20 -32 19 -17 20
-31 20 -226 l0 -208 -97 -4 -98 -3 98 -2 97 -2 0 -495 0 -494 -97 -4 -98 -3
99 -2 98 -2 -5 -87 c-4 -49 -9 -103 -13 -122 -5 -24 -3 -32 5 -27 8 5 12 -54
13 -221 l3 -228 2 223 c3 189 6 222 18 222 16 0 14 23 -6 78 -5 13 -9 55 -9
93 l0 69 113 2 112 2 -110 5 -110 6 -3 493 -2 492 112 2 113 2 -110 5 -110 6
-3 205 c-2 184 -1 206 15 217 12 10 73 13 222 13 l206 0 53 -49 c28 -26 52
-44 52 -40 0 4 -21 26 -47 48 l-48 41 228 0 c139 0 246 -4 274 -12 35 -8 50
-8 64 0 13 9 113 12 332 12 300 0 315 -1 332 -20 10 -11 26 -22 36 -25 18 -6
19 -22 19 -305 0 -220 -3 -299 -12 -302 -9 -3 -9 -18 0 -63 7 -32 12 -77 12
-99 l-1 -41 -27 31 c-15 17 -45 43 -67 59 -30 22 -26 16 16 -23 55 -50 68 -72
85 -141 5 -19 8 156 6 419 -2 333 0 461 9 482 l12 28 586 0 c685 -1 621 -2
621 9 0 14 -61 22 -76 10 -15 -13 -401 -9 -421 4 -10 6 -10 13 1 30 7 12 19
50 27 84 7 34 16 60 20 57 4 -2 10 0 14 6 3 5 -3 10 -14 10 -24 0 -28 -11 -46
-117 -4 -27 -12 -43 -21 -43 -8 0 -14 -9 -14 -20 0 -20 -7 -20 -340 -20 -325
0 -340 1 -350 19 -6 11 -10 90 -10 185 0 148 2 165 18 169 16 4 16 5 0 6 -17
1 -18 34 -18 541 0 520 -1 542 -20 578 -22 41 -43 67 -80 97 -14 11 -6 -1 17
-25 72 -77 89 -144 54 -214 -20 -38 -20 -38 0 -21 19 18 19 15 19 -288 0 -174
-4 -308 -9 -311 -5 -4 -12 -25 -16 -48 -6 -32 -4 -43 9 -50 13 -7 16 -29 16
-128 0 -111 -1 -120 -22 -134 l-22 -16 22 0 c22 0 22 -1 22 -157 l-1 -158 -35
-22 -35 -23 -609 0 -609 1 -40 33 c-22 19 -37 36 -34 40 4 3 -2 6 -13 6 -15
-1 -11 -7 19 -33 20 -18 37 -35 37 -39 0 -5 -78 -8 -172 -8 -125 0 -169 3
-158 11 12 8 10 9 -10 5 -20 -4 -31 2 -53 29 l-27 34 0 420 0 421 98 2 97 2
-95 5 -95 6 0 240 0 240 50 5 c48 5 51 8 47 40 -1 6 -20 1 -42 -10 -21 -11
-44 -20 -50 -20 -7 0 -10 82 -10 245 l0 245 113 2 112 2 -110 5 -110 6 -3 308
c-1 197 1 307 8 307 9 0 4 45 -10 85 -6 16 -10 9 -18 -30z"/>
<path d="M297 2512 c3 -1047 5 -1212 18 -1247 18 -48 100 -131 167 -170 27
-15 48 -25 48 -22 0 3 -21 18 -47 33 -121 70 -183 162 -165 242 6 24 6 39 1
36 -5 -3 -9 460 -9 1113 l0 1117 58 -56 c50 -48 152 -119 152 -105 0 3 -21 17
-47 33 -93 54 -163 134 -163 186 0 13 -4 28 -8 35 -4 6 -6 -532 -5 -1195z"/>
<path d="M2092 2232 c7 -10 87 -105 178 -211 91 -105 166 -196 168 -201 2 -5
-21 -11 -50 -13 l-53 -3 62 -2 62 -2 356 -416 c196 -228 359 -422 362 -430 3
-8 -4 -18 -18 -24 -20 -8 -19 -9 11 -4 35 5 37 3 155 -136 66 -78 120 -148
120 -156 0 -8 15 -24 33 -35 17 -12 32 -18 32 -14 0 17 -32 65 -43 65 -7 0
-60 55 -117 122 -57 68 -110 131 -119 141 -13 16 -13 20 -1 29 12 8 12 9 -2 4
-10 -3 -24 1 -32 9 -52 52 -710 830 -708 837 1 5 -5 11 -13 14 -23 9 -196 214
-190 225 4 5 0 9 -8 9 -8 0 -54 47 -102 105 -80 95 -117 134 -83 87z"/>
</g>
</svg>
