<?xml version="1.0" standalone="no"?>
<!DOCTYPE svg PUBLIC "-//W3C//DTD SVG 20010904//EN"
 "http://www.w3.org/TR/2001/REC-SVG-20010904/DTD/svg10.dtd">
<svg version="1.0" xmlns="http://www.w3.org/2000/svg"
 width="417.000000pt" height="474.000000pt" viewBox="0 0 417.000000 474.000000"
 preserveAspectRatio="xMidYMid meet">
<metadata>
Created by potrace 1.15, written by Peter Selinger 2001-2017
</metadata>
<g transform="translate(0.000000,474.000000) scale(0.100000,-0.100000)"
fill="#000000" stroke="none">
<path d="M1957 4383 c-15 -53 -19 -85 -8 -79 8 5 11 -69 11 -267 l0 -274 -187
-7 c-713 -25 -1243 -174 -1366 -383 -5 -8 -8 -512 -8 -1120 1 -891 4 -1111 15
-1136 85 -204 658 -370 1358 -394 l188 -6 0 -46 c0 -25 -6 -72 -14 -104 -11
-48 -11 -57 0 -57 11 0 14 -41 17 -202 l2 -203 3 208 c1 155 5 206 14 201 8
-5 9 0 4 17 -4 13 -10 60 -13 105 l-5 81 193 6 c686 23 1236 173 1359 371 l21
34 0 1097 0 1097 -21 44 c-101 207 -654 366 -1358 391 l-193 6 2 314 c2 291
-1 353 -14 306z m3 -1080 l0 -436 -187 6 c-762 27 -1353 212 -1353 424 0 56
19 92 71 137 200 171 738 287 1412 304 l57 2 0 -437z m240 427 c286 -14 619
-57 765 -98 29 -8 29 -9 -18 -16 -43 -7 -47 -9 -35 -24 11 -13 11 -15 -2 -7
-12 6 -12 5 -3 -5 9 -9 21 -6 57 15 l47 27 102 -32 c154 -48 260 -102 328
-168 91 -90 93 -151 5 -237 -172 -167 -682 -291 -1283 -312 l-193 -6 0 211 0
211 49 7 c41 5 48 9 44 25 -6 23 -5 23 -53 -1 l-40 -20 0 220 c0 203 1 220 18
220 9 0 105 -5 212 -10z m1310 -787 l0 -268 -50 3 c-81 6 -99 -2 -106 -48 -4
-22 -10 -40 -15 -40 -5 0 -9 -7 -9 -15 0 -8 5 -15 10 -15 6 0 10 -18 10 -39 0
-33 4 -40 25 -45 29 -7 75 2 75 15 0 5 9 9 20 9 10 0 24 8 29 18 9 15 10 13
11 -9 0 -22 -6 -28 -31 -33 -18 -3 -42 -18 -54 -32 -13 -15 -27 -24 -33 -20
-12 7 -58 -35 -66 -62 -4 -12 -18 -25 -32 -28 -13 -3 -24 -10 -24 -14 0 -4
-20 -11 -45 -14 -25 -4 -45 -11 -45 -17 0 -5 -9 -9 -20 -9 -11 0 -20 -4 -20
-10 0 -5 -22 -12 -50 -16 -27 -4 -50 -10 -50 -15 0 -5 -11 -9 -24 -9 -14 0
-31 -6 -38 -13 -7 -7 -21 -16 -31 -20 -10 -4 -17 -13 -14 -20 3 -8 28 -11 88
-10 46 2 77 0 69 -4 -8 -3 -19 -11 -23 -17 -6 -8 -10 -7 -14 2 -6 14 -33 16
-33 2 0 -5 -13 -10 -30 -10 -16 0 -30 -4 -30 -10 0 -5 -11 -12 -25 -16 -67
-17 13 -37 107 -27 50 5 58 3 58 -11 0 -9 8 -16 20 -16 11 0 20 4 20 9 0 5 16
12 35 15 19 4 35 11 35 15 0 5 8 11 18 13 17 5 18 -4 17 -104 0 -94 2 -111 18
-119 9 -6 17 -21 17 -34 0 -14 5 -25 10 -25 6 0 10 -30 10 -70 0 -38 4 -70 9
-70 5 0 12 -40 16 -90 4 -50 11 -90 16 -90 5 0 9 -23 9 -51 0 -59 13 -59 -130
-3 -168 65 -408 118 -671 148 -102 12 -445 34 -566 36 -21 0 -18 353 2 370 19
16 19 59 0 66 -13 5 -15 57 -15 384 l0 378 138 6 c336 16 574 43 804 92 243
51 466 145 551 231 23 23 43 43 45 43 1 0 2 -120 2 -267z m-2905 128 c269
-131 642 -201 1213 -227 l142 -6 0 -377 c0 -365 -1 -377 -20 -389 -11 -7 -20
-19 -20 -27 0 -8 9 -23 20 -32 19 -16 20 -30 20 -194 l0 -177 -82 -6 c-46 -3
-143 -8 -217 -11 -337 -15 -734 -87 -952 -174 -60 -23 -75 -26 -86 -15 -15 14
-18 114 -4 114 5 0 12 40 16 90 4 50 11 90 15 90 4 0 10 41 12 91 4 70 9 94
22 101 9 5 16 20 16 33 0 14 5 25 10 25 6 0 10 27 10 60 0 33 -4 60 -10 60 -5
0 -10 16 -10 35 0 19 5 35 10 35 6 0 10 -4 10 -10 0 -5 7 -10 15 -10 8 0 15
-4 15 -9 0 -5 14 -12 30 -16 17 -4 30 -11 30 -16 0 -5 11 -9 25 -9 17 0 25 6
25 16 0 15 8 16 60 11 63 -7 120 0 120 14 0 5 -6 9 -14 9 -8 0 -16 7 -20 15
-3 9 -18 15 -36 15 -16 0 -30 5 -30 10 0 14 -27 12 -33 -2 -4 -9 -8 -10 -14
-2 -4 6 -15 14 -23 18 -8 3 19 4 61 2 80 -4 117 6 89 24 -8 5 -20 10 -26 10
-7 0 -14 7 -18 15 -3 8 -17 15 -31 15 -14 0 -25 4 -25 9 0 5 -25 12 -55 16
-30 3 -55 11 -55 16 0 5 -7 9 -15 9 -8 0 -15 4 -15 9 0 5 -20 12 -45 15 -25 4
-45 11 -45 16 0 4 -11 11 -24 14 -14 3 -28 15 -31 27 -10 31 -45 62 -74 65
-14 1 -27 6 -28 11 -9 24 -23 34 -56 40 -34 5 -37 4 -38 -18 0 -13 -4 -33 -9
-44 -5 -12 -9 140 -9 363 l-1 384 53 -46 c28 -26 88 -64 132 -85z m-153 -891
c11 0 10 -177 -1 -182 -5 -1 -11 -25 -13 -53 -3 -48 -2 -50 24 -53 23 -3 29
-10 34 -39 9 -50 -3 -257 -16 -261 -6 -2 -10 -57 -10 -139 0 -130 -1 -136 -25
-165 l-25 -30 1 509 c1 375 4 496 12 461 6 -27 14 -48 19 -48z m3058 -616 c0
-187 -3 -283 -10 -279 -6 4 -10 60 -10 136 0 79 -4 129 -10 129 -5 0 -10 18
-10 40 0 22 -4 40 -10 40 -6 0 -10 38 -10 95 0 57 4 95 10 95 6 0 10 7 10 15
0 8 9 15 20 15 20 0 20 -7 20 -286z m-1550 -389 l0 -435 -32 0 c-100 0 -425
23 -565 40 -476 58 -846 192 -918 331 -22 41 -19 112 5 140 16 20 19 21 20 7
0 -10 6 -18 14 -18 8 0 16 -5 18 -11 6 -17 160 -18 165 -1 3 6 -1 12 -8 12
-12 0 -79 64 -79 75 0 4 7 13 15 21 8 9 15 11 15 5 0 -6 11 -11 25 -11 14 0
25 5 25 10 0 6 9 10 20 10 11 0 20 7 20 15 0 10 -10 15 -30 15 -125 0 178 107
439 155 237 44 502 71 734 74 l117 1 0 -435z m528 410 c293 -30 556 -85 740
-157 90 -35 103 -43 100 -61 -2 -17 -11 -23 -40 -25 -30 -3 -38 -7 -38 -23 0
-14 8 -20 28 -21 15 -1 38 -3 52 -4 14 -1 31 -3 38 -3 6 -1 12 -6 12 -11 0
-18 -66 -80 -84 -80 -26 0 -19 -19 10 -26 35 -9 138 2 142 16 2 5 12 10 23 10
14 0 19 7 19 26 0 40 17 19 24 -30 15 -100 -74 -183 -289 -269 -258 -103 -608
-161 -1102 -183 l-153 -7 0 438 0 438 183 -6 c100 -4 251 -14 335 -22z"/>
<path d="M445 2703 c-35 -35 -2 -163 42 -163 7 0 13 -4 13 -9 0 -13 49 -23 81
-16 26 6 29 11 29 46 0 21 5 39 10 39 6 0 10 7 10 15 0 8 -4 15 -9 15 -5 0
-11 18 -15 39 -7 45 -18 51 -91 51 -37 0 -59 -5 -70 -17z"/>
</g>
</svg>
